<?xml version="1.0" encoding="utf-8"?>
<!-- Generator: Adobe Illustrator 15.0.2, SVG Export Plug-In . SVG Version: 6.00 Build 0)  -->
<!DOCTYPE svg PUBLIC "-//W3C//DTD SVG 1.1//EN" "http://www.w3.org/Graphics/SVG/1.1/DTD/svg11.dtd">
<svg version="1.1" id="Layer_1" xmlns="http://www.w3.org/2000/svg" xmlns:xlink="http://www.w3.org/1999/xlink" x="0px" y="0px"
	 width="48px" height="48px" viewBox="0 0 48 48" enable-background="new 0 0 48 48" xml:space="preserve">
<path fill="#F8BF3C" d="M27,15l6,6L21,33l-6-6L27,15z M46.947,13.946L43.501,10.5l-1.5,1.5c-0.769,0.768-1.829,1.243-3,1.243
	c-2.343,0-4.243-1.899-4.243-4.243c0-1.172,0.475-2.233,1.244-3.001L37.501,4.5l-3.446-3.446c-1.404-1.405-3.703-1.405-5.107,0
	L1.055,28.945c-1.405,1.406-1.405,3.705,0,5.109L4.501,37.5l1.498-1.498c0.768-0.77,1.83-1.245,3.002-1.245
	c2.343,0,4.243,1.9,4.243,4.243c0,1.172-0.475,2.232-1.244,3.001L10.501,43.5l3.446,3.445c1.405,1.406,3.703,1.406,5.108,0
	l27.892-27.891C48.352,17.649,48.352,15.35,46.947,13.946L46.947,13.946z M21,39L9,27L27,9l12,12L21,39z"/>
</svg>
