<?xml version="1.0" encoding="utf-8"?>
<!-- Generator: Adobe Illustrator 15.0.2, SVG Export Plug-In . SVG Version: 6.00 Build 0)  -->
<!DOCTYPE svg PUBLIC "-//W3C//DTD SVG 1.1//EN" "http://www.w3.org/Graphics/SVG/1.1/DTD/svg11.dtd">
<svg version="1.1" id="Layer_1" xmlns="http://www.w3.org/2000/svg" xmlns:xlink="http://www.w3.org/1999/xlink" x="0px" y="0px"
	 width="48px" height="48px" viewBox="0 0 48 48" enable-background="new 0 0 48 48" xml:space="preserve">
<path fill="#55ACEE" d="M48,9.113c-1.766,0.783-3.664,1.313-5.656,1.551c2.033-1.219,3.596-3.149,4.33-5.448
	c-1.902,1.129-4.01,1.948-6.254,2.39c-1.796-1.914-4.355-3.11-7.188-3.11c-5.439,0-9.849,4.409-9.849,9.847
	c0,0.772,0.087,1.523,0.255,2.244C15.455,16.176,8.198,12.256,3.341,6.298c-0.848,1.454-1.333,3.146-1.333,4.951
	c0,3.417,1.738,6.431,4.381,8.197c-1.614-0.051-3.133-0.494-4.46-1.232c-0.001,0.041-0.001,0.082-0.001,0.124
	c0,4.771,3.395,8.751,7.899,9.656c-0.826,0.225-1.696,0.346-2.594,0.346c-0.635,0-1.251-0.062-1.853-0.177
	c1.253,3.912,4.89,6.76,9.199,6.839c-3.37,2.641-7.617,4.216-12.23,4.216c-0.795,0-1.579-0.047-2.349-0.138
	c4.358,2.794,9.534,4.425,15.096,4.425c18.114,0,28.019-15.006,28.019-28.019c0-0.427-0.01-0.852-0.029-1.274
	c1.926-1.388,3.594-3.123,4.914-5.098V9.113z"/>
</svg>
